<svg xmlns="http://www.w3.org/2000/svg" viewBox="0 0 32 32">
  <rect width="32" height="32" rx="8" fill="#0d0d0d"/>
  <!-- Book left page -->
  <path d="M7 7h8v18H7a1 1 0 01-1-1V8a1 1 0 011-1z" fill="#7c3aed"/>
  <!-- Book right page -->
  <path d="M17 7h8a1 1 0 011 1v16a1 1 0 01-1 1h-8V7z" fill="#a78bfa"/>
  <!-- Spine -->
  <rect x="15" y="7" width="2" height="18" fill="#5b21b6"/>
  <!-- Lines on left page -->
  <rect x="9" y="11" width="4" height="1.5" rx="0.75" fill="#c4b5fd" opacity="0.6"/>
  <rect x="9" y="14" width="4" height="1.5" rx="0.75" fill="#c4b5fd" opacity="0.6"/>
  <rect x="9" y="17" width="3" height="1.5" rx="0.75" fill="#c4b5fd" opacity="0.6"/>
  <!-- Lines on right page -->
  <rect x="19" y="11" width="4" height="1.5" rx="0.75" fill="#1e1b4b" opacity="0.5"/>
  <rect x="19" y="14" width="4" height="1.5" rx="0.75" fill="#1e1b4b" opacity="0.5"/>
  <rect x="19" y="17" width="3" height="1.5" rx="0.75" fill="#1e1b4b" opacity="0.5"/>
</svg>
